<svg width="552" height="262" viewBox="0 0 552 262" fill="none" xmlns="http://www.w3.org/2000/svg">
<g clip-path="url(#clip0_640_206)">
<path d="M512.526 176.945C513.104 163.779 522.814 152.892 535.106 152.892C546.531 152.892 552.541 161.772 551.964 173.509C551.386 187.543 541.676 196.134 529.096 196.134C519.096 196.134 511.949 188.683 512.526 176.945V176.945Z" fill="#D8D9C5"/>
<path d="M524.908 110.229C524.908 137.719 510.613 169.494 487.474 184.668C475.471 192.68 461.754 196.116 446.033 196.116C424.32 196.116 400.025 188.954 400.025 152.874C400.025 125.385 414.591 95.0376 436.882 78.9961C449.174 70.4056 463.739 65.8301 478.612 65.8301C508.339 65.8301 524.908 80.7142 524.908 110.211V110.229ZM455.184 89.9014C442.604 107.661 431.756 144.012 431.467 165.208C431.467 181.521 438.903 187.543 447.477 187.543C454.624 187.543 461.194 183.818 467.764 175.806C481.193 158.336 493.773 117.391 493.484 95.3451C493.484 84.4578 489.766 74.728 478.919 74.728C470.923 74.728 463.198 78.7429 455.202 89.9014H455.184Z" fill="#D8D9C5"/>
<path d="M394.43 74.7279C405.567 66.7162 413.292 63.28 420.999 63.28C427.857 63.28 432.713 67.8556 432.713 71.2918C432.713 75.3067 426.431 82.4503 422.713 85.0365C415.855 80.7503 407.281 79.3035 400.134 81.311C403.563 86.1759 405.567 93.3376 405.567 101.06C405.855 131.407 383.276 154.61 348.405 154.61C340.12 154.61 330.409 152.313 324.977 149.167C319.544 150.885 316.114 154.61 316.114 158.607C316.114 163.183 320.681 166.619 328.695 169.205C338.694 172.352 354.415 176.077 369.558 180.364C387.553 184.939 401 193.529 401 213.007C401 249.666 361.851 261.964 330.698 261.964C303.552 261.964 269.547 249.937 269.547 223.876C269.547 207.564 285.268 198.973 300.412 198.973C304.978 198.973 308.696 199.823 310.988 200.691L312.992 206.424C301.278 206.714 294.13 213.007 294.13 222.466C294.13 239.936 316.132 251.384 340.138 251.384C361.562 251.384 373.294 241.944 373.294 229.628C373.294 221.037 367.862 215.033 357.574 211.868C344.723 207.853 330.139 203.277 318.425 199.841C304.419 195.555 291.279 188.683 291.279 172.062C291.279 159.746 301.567 149.148 317.847 144.573C311.277 139.129 307.27 130.828 307.27 120.23C307.27 89.8833 333.279 65.83 364.143 65.83C376.995 65.83 387.012 68.6875 394.43 74.7099V74.7279ZM350.715 83.3184C342.719 94.2057 336.709 115.962 336.709 129.418C336.709 141.734 342.719 145.73 348.711 145.73C354.704 145.73 358.999 143.162 363.277 138.008C371.562 127.699 377.861 104.786 377.861 90.1908C377.861 79.5929 373.294 74.4386 366.147 74.4386C360.714 74.4386 355.281 77.296 350.715 83.3184V83.3184Z" fill="#D8D9C5"/>
<path d="M301.025 149.293C293.174 171.032 274.114 191.432 246.372 198.358C221.699 204.525 204.859 193.674 198.56 168.391C192.062 142.276 197.08 109.144 216.699 85.0728C226.68 73.1365 239.026 65.9205 252.617 62.5205C276.46 56.5705 289.492 67.4759 293.499 83.5898C296.82 96.9185 288.625 106.648 280.449 112.815C268.446 122.6 242.185 135.368 228.72 140.486C228.864 145.767 229.622 153.543 231.337 160.488C235.073 175.499 243.376 185.21 257.527 181.684C274.709 177.398 287.687 162.043 291.928 136.489L296.08 135.458L300.989 149.275L301.025 149.293ZM228.124 130.919C238.033 126.958 251.209 119.543 256.823 114.895C265.558 107.408 268.266 95.7973 265.234 83.5717C263.086 74.9631 258.104 70.2972 251.444 71.961C243.394 73.9685 229.117 86.393 228.124 130.901V130.919Z" fill="#D8D9C5"/>
<path d="M168.887 180.382C165.457 180.382 165.457 177.524 166.595 172.93C172.316 149.745 192.315 86.7365 200.599 66.9875L199.751 65.8481C187.171 68.8684 167.1 71.0024 150.567 72.2503C149.682 75.2524 148.762 78.3269 147.859 81.4557C152.083 81.4557 156.343 81.5823 158.31 81.5823C161.739 81.5823 162.028 83.011 161.162 86.7365C157.119 101.096 150.242 122.455 144.123 141.318L148.401 145.604L154.393 151.608L159.79 157.016L156.415 163.87C150.946 174.992 144.304 184.071 136.777 191.016C139.539 194.307 144.268 196.08 151.433 196.08C171.432 196.08 189.156 183.764 202.007 160L196.286 153.417C189.138 167.451 175.998 180.327 168.851 180.327L168.887 180.382Z" fill="#D8D9C5"/>
<path d="M192.315 9.44043C183.453 9.44043 172.876 16.0234 172.027 29.7682C171.739 40.6554 178.597 46.6597 186.882 46.6597C196.881 46.6597 206.592 39.498 207.169 26.6214C207.747 16.0234 202.603 9.44043 192.315 9.44043V9.44043Z" fill="#D8D9C5"/>
<path d="M146.885 159.205C136.885 179.532 120.298 196.424 97.4479 196.424C81.4382 196.424 78.5864 182.679 83.1709 165.788C83.7485 163.78 84.308 161.501 84.8856 159.205C73.1716 176.964 54.8878 196.134 28.0124 196.134C8.57339 196.134 0 181.54 0 161.773C0 131.986 16.858 95.6352 44.8704 77.0255C54.5809 70.4425 66.5837 65.8669 81.1675 65.8669C93.1702 65.8669 102.592 69.3031 106.888 75.8861C117.753 40.9456 121.453 25.4827 122.897 18.8997C123.746 14.6135 122.609 13.7455 120.046 13.4561C116.327 13.1667 109.18 12.8774 102.05 12.6061L105.191 4.59435C123.186 4.30499 152.336 1.73689 162.912 0.0187988C156.631 15.1923 141.488 63.2988 125.478 121.425C118.908 144.61 114.901 159.223 112.609 170.11C111.183 175.554 111.183 179.84 114.901 179.84C121.76 179.84 134.052 166.963 140.91 153.218L146.921 159.223L146.885 159.205ZM45.1592 179.532C56.2956 179.532 68.5871 166.927 80.0123 148.317C88.2969 134.862 100.3 105.365 100.3 91.6202C100.3 83.0298 96.022 75.5787 86.2934 75.5787C78.2976 75.5787 70.8613 79.0149 63.1543 87.6053C48.5886 103.358 34.5824 135.712 34.5824 162.912C34.5824 172.642 38.0117 179.514 45.1592 179.514V179.532Z" fill="#D8D9C5"/>
</g>
<defs>
<clipPath id="clip0_640_206">
<rect width="552" height="262" fill="white"/>
</clipPath>
</defs>
</svg>
